<?xml version="1.0" encoding="UTF-8" standalone="no"?>
<svg
   xmlns:dc="http://purl.org/dc/elements/1.1/"
   xmlns:cc="http://creativecommons.org/ns#"
   xmlns:rdf="http://www.w3.org/1999/02/22-rdf-syntax-ns#"
   xmlns:svg="http://www.w3.org/2000/svg"
   xmlns="http://www.w3.org/2000/svg"
   xmlns:sodipodi="http://sodipodi.sourceforge.net/DTD/sodipodi-0.dtd"
   xmlns:inkscape="http://www.inkscape.org/namespaces/inkscape"
   width="158"
   height="49"
   viewBox="0 0 158 49"
   fill="none"
   version="1.1"
   id="svg65"
   sodipodi:docname="ergo_logo1.svg"
   inkscape:version="1.0.2 (e86c870879, 2021-01-15)">
  <metadata
     id="metadata69">
    <rdf:RDF>
      <cc:Work
         rdf:about="">
        <dc:format>image/svg+xml</dc:format>
        <dc:type
           rdf:resource="http://purl.org/dc/dcmitype/StillImage" />
      </cc:Work>
    </rdf:RDF>
  </metadata>
  <sodipodi:namedview
     pagecolor="#ffffff"
     bordercolor="#666666"
     borderopacity="1"
     objecttolerance="10"
     gridtolerance="10"
     guidetolerance="10"
     inkscape:pageopacity="0"
     inkscape:pageshadow="2"
     inkscape:window-width="2566"
     inkscape:window-height="1195"
     id="namedview67"
     showgrid="false"
     inkscape:zoom="17.367089"
     inkscape:cx="34.294035"
     inkscape:cy="20.355527"
     inkscape:window-x="0"
     inkscape:window-y="28"
     inkscape:window-maximized="0"
     inkscape:current-layer="svg65" />
  <path
     d="M66.1747 26.9667C66.4069 28.8294 67.0237 30.1691 68.0251 30.9858C69.0265 31.7882 70.2601 32.1894 71.726 32.1894C72.7854 32.1894 73.8086 32.0174 74.7955 31.6735C75.7824 31.3297 76.733 30.8712 77.6474 30.298L80.4121 33.9947C79.3236 34.9118 78.0029 35.664 76.45 36.2515C74.9116 36.8389 73.1555 37.1327 71.1817 37.1327C68.5403 37.1327 66.3271 36.6168 64.542 35.5852C62.7568 34.5392 61.4144 33.1064 60.5146 31.2867C59.6147 29.467 59.1648 27.375 59.1648 25.0109C59.1648 22.7613 59.6002 20.7195 60.471 18.8855C61.3418 17.0371 62.6117 15.5685 64.2807 14.4795C65.9642 13.3762 68.0179 12.8246 70.4416 12.8246C72.6476 12.8246 74.5561 13.2903 76.167 14.2216C77.7925 15.1529 79.0479 16.4926 79.9332 18.2407C80.833 19.9888 81.2829 22.0879 81.2829 24.538C81.2829 24.9249 81.2684 25.3404 81.2394 25.7846C81.2249 26.2288 81.1958 26.6228 81.1523 26.9667H66.1747ZM70.4416 17.381C69.2079 17.381 68.2138 17.818 67.4591 18.6921C66.7044 19.5661 66.2473 20.9631 66.0876 22.8831H74.5778C74.5633 21.221 74.2368 19.8885 73.5982 18.8855C72.9596 17.8825 71.9074 17.381 70.4416 17.381Z"
     fill="#272727"
     id="path2" />
  <path
     d="M85.6634 36.4019V31.8455H88.7112V18.0903H85.6634V13.5768H93.9577L95.2203 18.7135C96.0476 16.7506 97.0998 15.2891 98.3769 14.3291C99.6686 13.3691 101.243 12.8891 103.101 12.8891C103.885 12.8891 104.581 12.9535 105.191 13.0825C105.8 13.1971 106.374 13.3619 106.911 13.5768L105.626 23.1195H101.316V18.907C100.01 19.1362 98.8631 19.8383 97.8762 21.0132C96.8893 22.1738 96.1274 23.6067 95.5904 25.3118V31.8455H100.162V36.4019H85.6634Z"
     fill="#272727"
     id="path4" />
  <path
     d="M131.211 9.9231L132.821 14.9094C132.009 15.2246 131.058 15.4538 129.97 15.5971C128.881 15.7404 127.611 15.8121 126.16 15.8121C127.611 16.4282 128.714 17.1947 129.469 18.1118C130.238 19.0144 130.623 20.2037 130.623 21.6795C130.623 23.1553 130.224 24.4735 129.425 25.6341C128.627 26.7804 127.495 27.6831 126.029 28.3422C124.563 29.0013 122.829 29.3309 120.826 29.3309C119.868 29.3309 118.976 29.2449 118.149 29.0729C117.641 29.3309 117.387 29.7679 117.387 30.384C117.387 30.7422 117.532 31.0646 117.822 31.3512C118.127 31.6377 118.831 31.781 119.934 31.781H123.722C126.407 31.781 128.547 32.4043 130.144 33.6509C131.74 34.8974 132.538 36.4735 132.538 38.3792C132.538 40.7147 131.501 42.5559 129.425 43.9028C127.35 45.2497 124.266 45.9231 120.173 45.9231C117.213 45.9231 114.919 45.6222 113.294 45.0204C111.683 44.433 110.558 43.5876 109.92 42.4843C109.296 41.3953 108.984 40.0986 108.984 38.5941H115.079C115.079 39.2532 115.21 39.7906 115.471 40.2061C115.747 40.6359 116.262 40.9512 117.017 41.1518C117.786 41.3524 118.896 41.4527 120.347 41.4527C121.813 41.4527 122.931 41.338 123.7 41.1088C124.469 40.8795 124.992 40.5643 125.267 40.1631C125.558 39.7762 125.703 39.3392 125.703 38.8521C125.703 38.1786 125.434 37.6341 124.897 37.2186C124.36 36.8031 123.511 36.5953 122.35 36.5953H118.671C116.175 36.5953 114.361 36.144 113.229 35.2413C112.097 34.3243 111.531 33.2568 111.531 32.0389C111.531 31.1935 111.756 30.3912 112.205 29.6318C112.67 28.8724 113.316 28.2347 114.143 27.7189C112.663 26.9452 111.603 26.0353 110.965 24.9894C110.326 23.9291 110.007 22.661 110.007 21.1852C110.007 19.4658 110.449 17.99 111.335 16.7577C112.22 15.5112 113.439 14.5512 114.992 13.8777C116.559 13.2043 118.345 12.8676 120.347 12.8676C122.074 12.8962 123.577 12.7816 124.854 12.5237C126.131 12.2515 127.277 11.8861 128.293 11.4276C129.309 10.9547 130.282 10.4532 131.211 9.9231ZM120.522 17.2735C119.433 17.2735 118.57 17.6174 117.931 18.3052C117.292 18.9786 116.973 19.91 116.973 21.0992C116.973 22.3601 117.3 23.3273 117.953 24.0007C118.606 24.6741 119.462 25.0109 120.522 25.0109C122.873 25.0109 124.048 23.6783 124.048 21.0132C124.048 18.5201 122.873 17.2735 120.522 17.2735Z"
     fill="#272727"
     id="path6" />
  <path
     d="M145.932 12.8246C148.312 12.8246 150.336 13.3261 152.005 14.3291C153.674 15.3321 154.952 16.7434 155.837 18.5631C156.722 20.3685 157.165 22.4891 157.165 24.9249C157.165 28.7362 156.178 31.7237 154.204 33.8873C152.23 36.0509 149.473 37.1327 145.932 37.1327C142.39 37.1327 139.633 36.0652 137.659 33.9303C135.685 31.7953 134.698 28.8079 134.698 24.9679C134.698 22.5464 135.141 20.4258 136.026 18.6061C136.926 16.7864 138.211 15.3679 139.88 14.3506C141.563 13.3332 143.58 12.8246 145.932 12.8246ZM145.932 17.8324C144.524 17.8324 143.479 18.4055 142.797 19.5518C142.129 20.6837 141.795 22.4891 141.795 24.9679C141.795 27.4897 142.129 29.3165 142.797 30.4485C143.479 31.5804 144.524 32.1464 145.932 32.1464C147.339 32.1464 148.377 31.5804 149.045 30.4485C149.727 29.3165 150.068 27.4753 150.068 24.9249C150.068 22.4604 149.727 20.6622 149.045 19.5303C148.377 18.3983 147.339 17.8324 145.932 17.8324Z"
     fill="#272727"
     id="path8" />
  <circle
     cx="24"
     cy="24.6565"
     r="23"
     fill="url(#paint0_linear)"
     id="circle10" />
  <path
     fill-rule="evenodd"
     clip-rule="evenodd"
     d="M24 47.3765C36.5479 47.3765 46.72 37.2044 46.72 24.6565C46.72 12.1086 36.5479 1.93649 24 1.93649C11.4521 1.93649 1.28 12.1086 1.28 24.6565C1.28 37.2044 11.4521 47.3765 24 47.3765ZM24 48.6565C37.2548 48.6565 48 37.9113 48 24.6565C48 11.4017 37.2548 0.656494 24 0.656494C10.7452 0.656494 0 11.4017 0 24.6565C0 37.9113 10.7452 48.6565 24 48.6565Z"
     fill="white"
     id="path12"
     style="fill:#ffffff;fill-opacity:1" />
  <path
     d="M12.8866 27.8591C12.8866 26.2519 11.5893 24.9489 9.98903 24.9489C8.38873 24.9489 7.09143 26.2519 7.09143 27.8591C7.09143 29.4664 8.38873 30.7694 9.98903 30.7694C11.5893 30.7694 12.8866 29.4664 12.8866 27.8591Z"
     fill="#1F5C8C"
     id="path14"
     style="fill:#1f5c8c;fill-opacity:1" />
  <path
     d="M41.3796 27.8591C41.3796 26.2519 40.0823 24.9489 38.482 24.9489C36.8817 24.9489 35.5844 26.2519 35.5844 27.8591C35.5844 29.4664 36.8817 30.7694 38.482 30.7694C40.0823 30.7694 41.3796 29.4664 41.3796 27.8591Z"
     fill="#1F5C8C"
     id="path16"
     style="fill:#1f5c8c;fill-opacity:1" />
  <path
     d="M19.6477 34.1646C19.6477 32.5574 18.3504 31.2544 16.7501 31.2544C15.1498 31.2544 13.8525 32.5574 13.8525 34.1646C13.8525 35.7719 15.1498 37.0749 16.7501 37.0749C18.3504 37.0749 19.6477 35.7719 19.6477 34.1646Z"
     fill="#1F5C8C"
     id="path18"
     style="fill:#1f5c8c;fill-opacity:1" />
  <path
     d="M19.6477 22.0387C19.6477 20.4314 18.3504 19.1284 16.7501 19.1284C15.1498 19.1284 13.8525 20.4314 13.8525 22.0387C13.8525 23.6459 15.1498 24.9489 16.7501 24.9489C18.3504 24.9489 19.6477 23.6459 19.6477 22.0387Z"
     fill="#1F5C8C"
     id="path20"
     style="fill:#1f5c8c;fill-opacity:1" />
  <path
     d="M15.7842 34.4072H17.716V22.7662H15.7842V34.4072Z"
     fill="#1F5C8C"
     id="path22" />
  <path
     d="M34.136 34.1646C34.136 32.5574 32.8387 31.2544 31.2384 31.2544C29.6381 31.2544 28.3408 32.5574 28.3408 34.1646C28.3408 35.7719 29.6381 37.0749 31.2384 37.0749C32.8387 37.0749 34.136 35.7719 34.136 34.1646Z"
     fill="#1F5C8C"
     id="path24"
     style="fill:#1f5c8c;fill-opacity:1" />
  <path
     d="M34.136 22.0387C34.136 20.4314 32.8387 19.1284 31.2384 19.1284C29.6381 19.1284 28.3408 20.4314 28.3408 22.0387C28.3408 23.6459 29.6381 24.9489 31.2384 24.9489C32.8387 24.9489 34.136 23.6459 34.136 22.0387Z"
     fill="#1F5C8C"
     id="path26"
     style="fill:#1f5c8c;fill-opacity:1" />
  <path
     d="M30.2726 34.4072H32.2043V22.7662H30.2726V34.4072Z"
     fill="#1F5C8C"
     id="path28" />
  <path
     d="M26.892 27.3741C26.892 25.7668 25.5947 24.4639 23.9944 24.4639C22.3941 24.4639 21.0968 25.7668 21.0968 27.3741C21.0968 28.9814 22.3941 30.2843 23.9944 30.2843C25.5947 30.2843 26.892 28.9814 26.892 27.3741Z"
     fill="#1F5C8C"
     id="path30"
     style="fill:#1f5c8c;fill-opacity:1" />
  <path
     d="M26.892 15.2481C26.892 13.6408 25.5947 12.3379 23.9944 12.3379C22.3941 12.3379 21.0968 13.6408 21.0968 15.2481C21.0968 16.8554 22.3941 18.1584 23.9944 18.1584C25.5947 18.1584 26.892 16.8554 26.892 15.2481Z"
     fill="#1F5C8C"
     id="path32"
     style="fill:#1f5c8c;fill-opacity:1" />
  <path
     d="M23.0286 27.6166H24.9603V15.9757H23.0286V27.6166Z"
     fill="#1F5C8C"
     id="path34" />
  <path
     d="M12.8866 26.8591C12.8866 25.2519 11.5893 23.9489 9.98903 23.9489C8.38873 23.9489 7.09143 25.2519 7.09143 26.8591C7.09143 28.4664 8.38873 29.7694 9.98903 29.7694C11.5893 29.7694 12.8866 28.4664 12.8866 26.8591Z"
     fill="white"
     id="path36"
     style="fill:#ffffff;fill-opacity:1" />
  <path
     d="M41.3796 26.8591C41.3796 25.2519 40.0823 23.9489 38.482 23.9489C36.8817 23.9489 35.5844 25.2519 35.5844 26.8591C35.5844 28.4664 36.8817 29.7694 38.482 29.7694C40.0823 29.7694 41.3796 28.4664 41.3796 26.8591Z"
     fill="white"
     id="path38"
     style="fill:#ffffff;fill-opacity:1" />
  <path
     d="M19.6477 33.1646C19.6477 31.5574 18.3504 30.2544 16.7501 30.2544C15.1498 30.2544 13.8525 31.5574 13.8525 33.1646C13.8525 34.7719 15.1498 36.0749 16.7501 36.0749C18.3504 36.0749 19.6477 34.7719 19.6477 33.1646Z"
     fill="white"
     id="path40"
     style="fill:#ffffff;fill-opacity:1" />
  <path
     d="M19.6477 21.0387C19.6477 19.4314 18.3504 18.1284 16.7501 18.1284C15.1498 18.1284 13.8525 19.4314 13.8525 21.0387C13.8525 22.6459 15.1498 23.9489 16.7501 23.9489C18.3504 23.9489 19.6477 22.6459 19.6477 21.0387Z"
     fill="white"
     id="path42"
     style="fill:#ffffff;fill-opacity:1" />
  <path
     d="M15.7842 33.4072H17.716V21.7662H15.7842V33.4072Z"
     fill="white"
     id="path44"
     style="fill:#ffffff;fill-opacity:1" />
  <path
     d="M34.136 33.1646C34.136 31.5574 32.8387 30.2544 31.2384 30.2544C29.6381 30.2544 28.3408 31.5574 28.3408 33.1646C28.3408 34.7719 29.6381 36.0749 31.2384 36.0749C32.8387 36.0749 34.136 34.7719 34.136 33.1646Z"
     fill="white"
     id="path46"
     style="fill:#ffffff;fill-opacity:1" />
  <path
     d="M34.136 21.0387C34.136 19.4314 32.8387 18.1284 31.2384 18.1284C29.6381 18.1284 28.3408 19.4314 28.3408 21.0387C28.3408 22.6459 29.6381 23.9489 31.2384 23.9489C32.8387 23.9489 34.136 22.6459 34.136 21.0387Z"
     fill="white"
     id="path48"
     style="fill:#ffffff;fill-opacity:1" />
  <path
     d="M30.2726 33.4072H32.2043V21.7662H30.2726V33.4072Z"
     fill="white"
     id="path50"
     style="fill:#ffffff;fill-opacity:1" />
  <path
     d="M26.892 26.3741C26.892 24.7668 25.5947 23.4639 23.9944 23.4639C22.3941 23.4639 21.0968 24.7668 21.0968 26.3741C21.0968 27.9814 22.3941 29.2843 23.9944 29.2843C25.5947 29.2843 26.892 27.9814 26.892 26.3741Z"
     fill="white"
     id="path52" />
  <path
     d="M26.892 14.2481C26.892 12.6408 25.5947 11.3379 23.9944 11.3379C22.3941 11.3379 21.0968 12.6408 21.0968 14.2481C21.0968 15.8554 22.3941 17.1584 23.9944 17.1584C25.5947 17.1584 26.892 15.8554 26.892 14.2481Z"
     fill="white"
     id="path54"
     style="fill:#ffffff;fill-opacity:1" />
  <path
     d="M23.0286 26.6166H24.9603V14.9757H23.0286V26.6166Z"
     fill="white"
     id="path56"
     style="fill:#ffffff;fill-opacity:1" />
  <defs
     id="defs63">
    <linearGradient
       id="paint0_linear"
       x1="24"
       y1="1.65649"
       x2="24"
       y2="47.6565"
       gradientUnits="userSpaceOnUse">
      <stop
         stop-color="#50B6F5"
         id="stop58" />
      <stop
         offset="1"
         stop-color="#307BF1"
         id="stop60" />
    </linearGradient>
  </defs>
</svg>
